HIERARCHY
ROOT Hips
{
	OFFSET	0.00	0.00	0.00
	CHANNELS 6 Xposition Yposition Zposition Zrotation Xrotation Yrotation
	JOINT LeftUpLeg
	{
		OFFSET	 0.126116	-0.014019	-0.065224
		CHANNELS 3 Zrotation Xrotation Yrotation
		JOINT LeftLeg
		{
			OFFSET	 0.000000	 0.000000	 0.569914
			CHANNELS 3 Zrotation Xrotation Yrotation
			JOINT LeftFoot
			{
				OFFSET	 0.000000	 0.000000	 0.544423
				CHANNELS 3 Zrotation Xrotation Yrotation
				JOINT LeftToeBase
				{
					OFFSET	 0.000000	 0.000000	 0.207117
					CHANNELS 3 Zrotation Xrotation Yrotation
					End Site
					{
						OFFSET	 0.000000	 0.000000	 0.207117
					}
				}
			}
		}
	}
	JOINT RightUpLeg
	{
		OFFSET	-0.124023	-0.008373	-0.065224
		CHANNELS 3 Zrotation Xrotation Yrotation
		JOINT RightLeg
		{
			OFFSET	 0.000000	 0.000000	 0.570047
			CHANNELS 3 Zrotation Xrotation Yrotation
			JOINT RightFoot
			{
				OFFSET	 0.000000	 0.000000	 0.544354
				CHANNELS 3 Zrotation Xrotation Yrotation
				JOINT RightToeBase
				{
					OFFSET	 0.000000	 0.000000	 0.207540
					CHANNELS 3 Zrotation Xrotation Yrotation
					End Site
					{
						OFFSET	 0.000000	 0.000000	 0.207540
					}
				}
			}
		}
	}
	JOINT Spine
	{
		OFFSET	 0.000184	-0.007763	 0.117403
		CHANNELS 3 Zrotation Xrotation Yrotation
		JOINT Spine1
		{
			OFFSET	 0.000000	 0.000000	 0.137269
			CHANNELS 3 Zrotation Xrotation Yrotation
			JOINT Spine2
			{
				OFFSET	 0.000000	 0.000000	 0.156879
				CHANNELS 3 Zrotation Xrotation Yrotation
				JOINT LeftShoulder
				{
					OFFSET	 0.080501	-0.002496	 0.160144
					CHANNELS 3 Zrotation Xrotation Yrotation
					JOINT LeftArm
					{
						OFFSET	 0.000000	 0.000000	 0.164363
						CHANNELS 3 Zrotation Xrotation Yrotation
						JOINT LeftForeArm
						{
							OFFSET	 0.000000	 0.000000	 0.364576
							CHANNELS 3 Zrotation Xrotation Yrotation
							JOINT LeftHand
							{
								OFFSET	 0.000000	 0.000000	 0.360812
								CHANNELS 3 Zrotation Xrotation Yrotation
								JOINT LeftHandIndex1
								{
									OFFSET	 0.000000	 0.000000	 0.086006
									CHANNELS 3 Zrotation Xrotation Yrotation
									JOINT LeftHandIndex2
									{
										OFFSET	 0.000000	 0.000000	 0.047236
										CHANNELS 3 Zrotation Xrotation Yrotation
										JOINT LeftHandIndex3
										{
											OFFSET	-0.004284	-0.000551	 0.038166
											CHANNELS 3 Zrotation Xrotation Yrotation
											End Site
											{
												OFFSET	-0.004284	-0.000551	 0.038166
											}
										}
									}
								}
							}
						}
					}
				}
				JOINT Neck
				{
					OFFSET	 0.000000	 0.000000	 0.176489
					CHANNELS 3 Zrotation Xrotation Yrotation
					JOINT Head
					{
						OFFSET	 0.000000	-0.001747	 0.077940
						CHANNELS 3 Zrotation Xrotation Yrotation
						End Site
						{
							OFFSET	 0.000000	-0.001747	 0.077940
						}
					}
				}
				JOINT RightShoulder
				{
					OFFSET	-0.080363	 0.000306	 0.159706
					CHANNELS 3 Zrotation Xrotation Yrotation
					JOINT RightArm
					{
						OFFSET	 0.000000	 0.000000	 0.164196
						CHANNELS 3 Zrotation Xrotation Yrotation
						JOINT RightForeArm
						{
							OFFSET	 0.000000	 0.000000	 0.365611
							CHANNELS 3 Zrotation Xrotation Yrotation
							JOINT RightHand
							{
								OFFSET	 0.000000	 0.000000	 0.360648
								CHANNELS 3 Zrotation Xrotation Yrotation
								JOINT RightHandIndex1
								{
									OFFSET	 0.000000	 0.000000	 0.069977
									CHANNELS 3 Zrotation Xrotation Yrotation
									JOINT RightHandIndex2
									{
										OFFSET	 0.000000	 0.000000	 0.052305
										CHANNELS 3 Zrotation Xrotation Yrotation
										JOINT RightHandIndex3
										{
											OFFSET	 0.009002	-0.000782	 0.042196
											CHANNELS 3 Zrotation Xrotation Yrotation
											End Site
											{
												OFFSET	 0.009002	-0.000782	 0.042196
											}
										}
									}
								}
							}
						}
					}
				}
			}
		}
	}
}
MOTION
Frames:    5
Frame Time: 0.03333334
-0.000499	 0.020041	 1.266751	 0.004045	 0.007333	-0.098183	 4.941995	-3.461841	 177.145800	 1.433111	-14.809360	-0.871486	-9.649281	 72.162630	 3.758735	-2.385833	 28.452760	 0.000004	-5.049634	-4.071841	-176.997200	-1.408800	-15.544510	 0.900038	 9.481238	 72.415450	-3.737184	 2.384658	 28.388730	 0.000004	 1.466925	 2.723777	-0.017768	 1.175930	 3.667541	 0.479057	-3.532748	-4.623074	-0.781583	-91.776200	 78.527430	-180.000000	 54.915880	 38.212160	-60.730300	-8.690498	 0.192075	-0.685455	-29.219760	 2.159256	-4.352475	-2.635965	 4.993658	 6.788941	-5.165319	 0.784187	 3.516649	-5.225038	 0.466231	 0.424329	-0.000002	-3.783157	-0.089647	-3.423812	 4.938062	 0.147662	 89.782100	 78.203890	 180.000000	-62.470760	 41.195240	 55.583790	 8.126384	 3.311407	 7.681471	 28.356980	 1.160409	 8.826440	 6.112037	 4.509576	-0.364401	 4.968462	 1.518543	-9.347576	 5.168945	 0.703820	 2.021906
-0.000502	 0.020308	 1.262823	 0.004044	 0.007335	-0.098190	 5.299582	-4.903567	 177.220300	 1.382245	-17.716800	-1.053053	-10.802090	 73.585200	 4.967518	-2.385833	 28.452760	 0.000004	-5.406283	-5.459289	-177.066900	-1.358549	-18.337150	 1.072443	 10.578000	 73.783680	-4.885586	 2.384658	 28.388730	 0.000004	 0.631624	 2.723762	-0.017761	 1.175931	 3.667567	 0.479051	-3.532752	-4.623084	-0.781580	-91.776120	 78.527470	 179.999900	 54.814460	 38.164760	-60.564140	-9.222036	 0.203532	-0.914507	-29.229090	 2.171839	-4.352112	-2.635965	 4.993658	 6.788941	-5.165319	 0.784187	 3.516649	-5.225038	 0.466231	 0.424329	-0.000002	-3.783157	-0.089647	-3.423812	 4.938062	 0.147662	 89.782100	 78.203900	 180.000000	-62.155130	 40.704390	 56.723620	 8.083243	 3.098416	 7.435708	 28.453310	 0.758748	 8.579113	 6.112037	 4.509576	-0.364401	 4.968462	 1.518543	-9.347576	 5.168945	 0.703820	 2.021906
-0.000504	 0.020578	 1.258900	 0.004044	 0.007335	-0.098190	 5.668832	-6.149785	 177.277300	 1.329831	-20.221900	-1.214261	-11.973360	 74.800700	 6.187678	-2.385833	 28.452760	 0.000004	-5.774051	-6.671379	-177.121400	-1.306761	-20.768790	 1.227144	 11.699210	 74.965980	-6.052258	 2.384658	 28.388730	 0.000004	-0.282409	 2.723772	-0.017760	 1.175930	 3.667542	 0.479058	-3.532748	-4.623074	-0.781584	-91.776180	 78.527490	 180.000000	 54.694580	 38.113490	-60.370940	-9.803201	 0.219270	-1.161306	-29.239400	 2.185729	-4.351721	-2.635965	 4.993658	 6.788941	-5.165319	 0.784187	 3.516649	-5.225038	 0.466231	 0.424329	-0.000002	-3.783157	-0.089647	-3.423812	 4.938062	 0.147662	 89.782010	 78.203890	-179.999900	-61.495820	 39.963630	 57.694580	 7.888543	 3.248826	 8.063006	 28.630970	 0.261697	 8.279771	 6.112037	 4.509576	-0.364401	 4.968462	 1.518543	-9.347576	 5.168945	 0.703820	 2.021906
-0.000505	 0.020884	 1.254527	 0.004047	 0.007340	-0.098147	 6.088319	-7.383977	 177.327300	 1.269689	-22.695310	-1.378616	-13.333400	 75.990000	 7.596619	-2.385833	 28.452760	 0.000004	-6.191724	-7.879681	-177.169700	-1.247337	-23.185200	 1.385899	 13.005760	 76.130960	-7.404449	 2.384658	 28.388730	 0.000004	-1.379855	 2.723763	-0.017806	 1.175929	 3.667554	 0.479056	-3.532752	-4.623080	-0.781581	-91.776100	 78.527470	 179.999900	 54.534970	 38.043690	-60.109780	-10.502660	 0.246376	-1.462114	-29.251880	 2.202541	-4.351232	-2.635965	 4.993658	 6.788941	-5.165319	 0.784187	 3.516649	-5.225038	 0.466231	 0.424329	-0.000002	-3.783157	-0.089647	-3.423810	 4.938063	 0.147662	 89.782130	 78.203830	 180.000000	-59.875130	 38.692010	 57.415430	 7.298186	 4.662729	 11.768320	 28.773390	-0.358412	 7.876817	 6.112037	 4.509576	-0.364401	 4.968462	 1.518543	-9.347576	 5.168945	 0.703820	 2.021906
-0.000507	 0.021141	 1.250937	 0.004048	 0.007338	-0.098149	 6.437375	-8.309458	 177.360500	 1.218871	-24.545060	-1.505436	-14.513860	 76.871130	 8.814108	-2.385833	 28.452760	 0.000004	-6.539254	-8.789536	-177.202300	-1.197121	-24.999670	 1.508907	 14.142440	 76.998210	-8.575727	 2.384658	 28.388730	 0.000004	-2.336183	 2.723763	-0.017803	 1.175929	 3.667567	 0.479055	-3.532751	-4.623089	-0.781581	-91.776150	 78.527450	 180.000000	 54.380910	 37.978290	-59.857790	-11.115760	 0.276529	-1.726451	-29.262970	 2.217402	-4.350805	-2.635965	 4.993658	 6.788941	-5.165319	 0.784187	 3.516649	-5.225038	 0.466231	 0.424329	-0.000002	-3.783157	-0.089647	-3.423810	 4.938063	 0.147662	 89.782090	 78.203870	-180.000000	-58.177860	 37.435530	 57.720860	 6.532881	 5.688169	 14.764330	 28.637100	-0.945364	 7.392064	 6.112037	 4.509576	-0.364401	 4.968462	 1.518543	-9.347576	 5.168945	 0.703820	 2.021906
